<?xml version="1.0" encoding="UTF-8" standalone="no"?>
<!DOCTYPE svg PUBLIC "-//W3C//DTD SVG 1.1//EN"
 "http://www.w3.org/Graphics/SVG/1.1/DTD/svg11.dtd">
<!-- Generated by graphviz version 2.42.4 (0)
 -->
<!-- Title: RaceDayERD Pages: 1 -->
<svg width="1481pt" height="324pt"
 viewBox="10.80 10.80 1470.60 313.60" xmlns="http://www.w3.org/2000/svg" xmlns:xlink="http://www.w3.org/1999/xlink">
<g id="graph0" class="graph" transform="scale(1 1) rotate(0) translate(25.2 299.2)">
<title>RaceDayERD</title>
<polygon fill="white" stroke="transparent" points="-14.4,14.4 -14.4,-288.4 1445.4,-288.4 1445.4,14.4 -14.4,14.4"/>
<!-- Organiser -->
<g id="node1" class="node">
<title>Organiser</title>
<polygon fill="none" stroke="black" points="0,-151.5 0,-209.5 203,-209.5 203,-151.5 0,-151.5"/>
<text text-anchor="middle" x="26.5" y="-178.3" font-family="Arial" font-size="9.00">Organiser</text>
<polyline fill="none" stroke="black" points="53,-151.5 53,-209.5 "/>
<text text-anchor="start" x="59" y="-198.3" font-family="Arial" font-size="9.00">+ Organiser_ID : int [PK]</text>
<text text-anchor="start" x="59" y="-188.3" font-family="Arial" font-size="9.00">+ Organiser_Name : varchar(100)</text>
<text text-anchor="start" x="59" y="-178.3" font-family="Arial" font-size="9.00">+ Email : varchar(150) [UQ]</text>
<text text-anchor="start" x="59" y="-168.3" font-family="Arial" font-size="9.00">+ Phone_Number : varchar(20)</text>
<text text-anchor="start" x="59" y="-158.3" font-family="Arial" font-size="9.00">+ Created_At : datetime2</text>
</g>
<!-- Event -->
<g id="node3" class="node">
<title>Event</title>
<polygon fill="none" stroke="black" points="292,-126.5 292,-234.5 461,-234.5 461,-126.5 292,-126.5"/>
<text text-anchor="middle" x="310" y="-178.3" font-family="Arial" font-size="9.00">Event</text>
<polyline fill="none" stroke="black" points="328,-126.5 328,-234.5 "/>
<text text-anchor="start" x="334" y="-223.3" font-family="Arial" font-size="9.00">+ Event_ID : int [PK]</text>
<text text-anchor="start" x="334" y="-213.3" font-family="Arial" font-size="9.00">+ Organiser_ID : int [FK]</text>
<text text-anchor="start" x="334" y="-203.3" font-family="Arial" font-size="9.00">+ Event_Name : varchar(150)</text>
<text text-anchor="start" x="334" y="-193.3" font-family="Arial" font-size="9.00">+ Description : varchar(500)</text>
<text text-anchor="start" x="334" y="-183.3" font-family="Arial" font-size="9.00">+ Event_Date : date</text>
<text text-anchor="start" x="334" y="-173.3" font-family="Arial" font-size="9.00">+ Location : varchar(200)</text>
<text text-anchor="start" x="334" y="-163.3" font-family="Arial" font-size="9.00">+ Event_Type : varchar(20)</text>
<text text-anchor="start" x="334" y="-153.3" font-family="Arial" font-size="9.00">+ Status : varchar(20)</text>
<text text-anchor="start" x="334" y="-143.3" font-family="Arial" font-size="9.00">+ Closing_Date : date</text>
<text text-anchor="start" x="334" y="-133.3" font-family="Arial" font-size="9.00">+ Created_At : datetime2</text>
</g>
<!-- Organiser&#45;&gt;Event -->
<g id="edge1" class="edge">
<title>Organiser&#45;&gt;Event</title>
<path fill="none" stroke="black" d="M203.12,-180.5C232.34,-180.5 263.89,-180.5 291.96,-180.5"/>
<text text-anchor="middle" x="247.5" y="-183.1" font-family="Arial" font-size="8.00">organises</text>
<text text-anchor="middle" x="278.37" y="-184.94" font-family="Arial" font-size="8.00">0..*</text>
<text text-anchor="middle" x="216.71" y="-172.26" font-family="Arial" font-size="8.00">1</text>
</g>
<!-- Participant -->
<g id="node2" class="node">
<title>Participant</title>
<polygon fill="none" stroke="black" points="559.5,-0.5 559.5,-88.5 754.5,-88.5 754.5,-0.5 559.5,-0.5"/>
<text text-anchor="middle" x="587.5" y="-42.3" font-family="Arial" font-size="9.00">Participant</text>
<polyline fill="none" stroke="black" points="615.5,-0.5 615.5,-88.5 "/>
<text text-anchor="start" x="621.5" y="-77.3" font-family="Arial" font-size="9.00">+ Participant_ID : int [PK]</text>
<text text-anchor="start" x="621.5" y="-67.3" font-family="Arial" font-size="9.00">+ First_Name : varchar(60)</text>
<text text-anchor="start" x="621.5" y="-57.3" font-family="Arial" font-size="9.00">+ Last_Name : varchar(60)</text>
<text text-anchor="start" x="621.5" y="-47.3" font-family="Arial" font-size="9.00">+ Date_Of_Birth : date</text>
<text text-anchor="start" x="621.5" y="-37.3" font-family="Arial" font-size="9.00">+ Gender : varchar(20)</text>
<text text-anchor="start" x="621.5" y="-27.3" font-family="Arial" font-size="9.00">+ Email : varchar(150) [UQ]</text>
<text text-anchor="start" x="621.5" y="-17.3" font-family="Arial" font-size="9.00">+ Phone_Number : varchar(20)</text>
<text text-anchor="start" x="621.5" y="-7.3" font-family="Arial" font-size="9.00">+ Created_At : datetime2</text>
</g>
<!-- Enrolment -->
<g id="node5" class="node">
<title>Enrolment</title>
<polygon fill="none" stroke="black" points="865,-114.5 865,-192.5 1074,-192.5 1074,-114.5 865,-114.5"/>
<text text-anchor="middle" x="892.5" y="-151.3" font-family="Arial" font-size="9.00">Enrolment</text>
<polyline fill="none" stroke="black" points="920,-114.5 920,-192.5 "/>
<text text-anchor="start" x="926" y="-181.3" font-family="Arial" font-size="9.00">+ Enrolment_ID : int [PK]</text>
<text text-anchor="start" x="926" y="-171.3" font-family="Arial" font-size="9.00">+ Participant_ID : int [FK]</text>
<text text-anchor="start" x="926" y="-161.3" font-family="Arial" font-size="9.00">+ Event_ID : int [FK]</text>
<text text-anchor="start" x="926" y="-151.3" font-family="Arial" font-size="9.00">+ Category_ID : int [FK]</text>
<text text-anchor="start" x="926" y="-141.3" font-family="Arial" font-size="9.00">+ Enrolment_Date : datetime2</text>
<text text-anchor="start" x="926" y="-131.3" font-family="Arial" font-size="9.00">+ Race_Number : varchar(20) [UQ]</text>
<text text-anchor="start" x="926" y="-121.3" font-family="Arial" font-size="9.00">+ Enrolment_Status : varchar(20)</text>
</g>
<!-- Participant&#45;&gt;Enrolment -->
<g id="edge3" class="edge">
<title>Participant&#45;&gt;Enrolment</title>
<path fill="none" stroke="black" d="M657,-88.86C657,-105.29 657,-120 657,-120 657,-120 773.79,-120 864.57,-120"/>
<text text-anchor="middle" x="817" y="-47.1" font-family="Arial" font-size="8.00">makes</text>
<text text-anchor="middle" x="850.98" y="-124.44" font-family="Arial" font-size="8.00">0..*</text>
<text text-anchor="middle" x="663.34" y="-100.55" font-family="Arial" font-size="8.00">1</text>
</g>
<!-- Race_Category -->
<g id="node4" class="node">
<title>Race_Category</title>
<polygon fill="none" stroke="black" points="545,-195.5 545,-273.5 769,-273.5 769,-195.5 545,-195.5"/>
<text text-anchor="middle" x="583.5" y="-232.3" font-family="Arial" font-size="9.00">Race_Category</text>
<polyline fill="none" stroke="black" points="622,-195.5 622,-273.5 "/>
<text text-anchor="start" x="628" y="-262.3" font-family="Arial" font-size="9.00">+ Category_ID : int [PK]</text>
<text text-anchor="start" x="628" y="-252.3" font-family="Arial" font-size="9.00">+ Event_ID : int [FK]</text>
<text text-anchor="start" x="628" y="-242.3" font-family="Arial" font-size="9.00">+ Category_Name : varchar(100)</text>
<text text-anchor="start" x="628" y="-232.3" font-family="Arial" font-size="9.00">+ Distance_KM : decimal(6,2)</text>
<text text-anchor="start" x="628" y="-222.3" font-family="Arial" font-size="9.00">+ Entry_Fee : decimal(10,2)</text>
<text text-anchor="start" x="628" y="-212.3" font-family="Arial" font-size="9.00">+ Max_Participants : int</text>
<text text-anchor="start" x="628" y="-202.3" font-family="Arial" font-size="9.00">+ Current_Participants : int</text>
</g>
<!-- Event&#45;&gt;Race_Category -->
<g id="edge2" class="edge">
<title>Event&#45;&gt;Race_Category</title>
<path fill="none" stroke="black" d="M461.04,-215C487.41,-215 516.93,-215 544.88,-215"/>
<text text-anchor="middle" x="503" y="-223.1" font-family="Arial" font-size="8.00">contains</text>
<text text-anchor="middle" x="531.29" y="-219.44" font-family="Arial" font-size="8.00">1..*</text>
<text text-anchor="middle" x="474.63" y="-206.76" font-family="Arial" font-size="8.00">1</text>
</g>
<!-- Event&#45;&gt;Enrolment -->
<g id="edge4" class="edge">
<title>Event&#45;&gt;Enrolment</title>
<path fill="none" stroke="black" d="M461.15,-148.33C567.47,-148.33 749.87,-148.33 864.84,-148.33"/>
<text text-anchor="middle" x="657" y="-156.1" font-family="Arial" font-size="8.00">receives</text>
<text text-anchor="middle" x="851.24" y="-152.77" font-family="Arial" font-size="8.00">0..*</text>
<text text-anchor="middle" x="474.74" y="-140.09" font-family="Arial" font-size="8.00">1</text>
</g>
<!-- Race_Category&#45;&gt;Enrolment -->
<g id="edge5" class="edge">
<title>Race_Category&#45;&gt;Enrolment</title>
<path fill="none" stroke="black" d="M762,-195.16C762,-182.03 762,-170.67 762,-170.67 762,-170.67 813.27,-170.67 864.84,-170.67"/>
<text text-anchor="middle" x="817" y="-223.1" font-family="Arial" font-size="8.00">selected for</text>
<text text-anchor="middle" x="851.24" y="-175.11" font-family="Arial" font-size="8.00">0..*</text>
<text text-anchor="middle" x="755.66" y="-179.67" font-family="Arial" font-size="8.00">1</text>
</g>
<!-- Payment -->
<g id="node6" class="node">
<title>Payment</title>
<polygon fill="none" stroke="black" points="1192,-170.5 1192,-248.5 1431,-248.5 1431,-170.5 1192,-170.5"/>
<text text-anchor="middle" x="1216.5" y="-207.3" font-family="Arial" font-size="9.00">Payment</text>
<polyline fill="none" stroke="black" points="1241,-170.5 1241,-248.5 "/>
<text text-anchor="start" x="1247" y="-237.3" font-family="Arial" font-size="9.00">+ Payment_ID : int [PK]</text>
<text text-anchor="start" x="1247" y="-227.3" font-family="Arial" font-size="9.00">+ Enrolment_ID : int [FK]</text>
<text text-anchor="start" x="1247" y="-217.3" font-family="Arial" font-size="9.00">+ Amount : decimal(10,2)</text>
<text text-anchor="start" x="1247" y="-207.3" font-family="Arial" font-size="9.00">+ Payment_Method : varchar(20)</text>
<text text-anchor="start" x="1247" y="-197.3" font-family="Arial" font-size="9.00">+ Payment_Status : varchar(20)</text>
<text text-anchor="start" x="1247" y="-187.3" font-family="Arial" font-size="9.00">+ Payment_Date : datetime2</text>
<text text-anchor="start" x="1247" y="-177.3" font-family="Arial" font-size="9.00">+ Transaction_Reference : varchar(80) [UQ]</text>
</g>
<!-- Enrolment&#45;&gt;Payment -->
<g id="edge6" class="edge">
<title>Enrolment&#45;&gt;Payment</title>
<path fill="none" stroke="black" d="M1074.44,-181.5C1111.55,-181.5 1153.56,-181.5 1191.81,-181.5"/>
<text text-anchor="middle" x="1133" y="-212.1" font-family="Arial" font-size="8.00">payment attempts</text>
<text text-anchor="middle" x="1178.21" y="-185.94" font-family="Arial" font-size="8.00">0..*</text>
<text text-anchor="middle" x="1088.03" y="-173.26" font-family="Arial" font-size="8.00">1</text>
</g>
<!-- Race_Result -->
<g id="node7" class="node">
<title>Race_Result</title>
<polygon fill="none" stroke="black" points="1213,-59.5 1213,-137.5 1410,-137.5 1410,-59.5 1213,-59.5"/>
<text text-anchor="middle" x="1246" y="-96.3" font-family="Arial" font-size="9.00">Race_Result</text>
<polyline fill="none" stroke="black" points="1279,-59.5 1279,-137.5 "/>
<text text-anchor="start" x="1285" y="-126.3" font-family="Arial" font-size="9.00">+ Result_ID : int [PK]</text>
<text text-anchor="start" x="1285" y="-116.3" font-family="Arial" font-size="9.00">+ Enrolment_ID : int [FK, UQ]</text>
<text text-anchor="start" x="1285" y="-106.3" font-family="Arial" font-size="9.00">+ Start_Time : time</text>
<text text-anchor="start" x="1285" y="-96.3" font-family="Arial" font-size="9.00">+ Finish_Time : time</text>
<text text-anchor="start" x="1285" y="-86.3" font-family="Arial" font-size="9.00">+ Overall_Position : int</text>
<text text-anchor="start" x="1285" y="-76.3" font-family="Arial" font-size="9.00">+ Result_Status : varchar(20)</text>
<text text-anchor="start" x="1285" y="-66.3" font-family="Arial" font-size="9.00">+ Recorded_At : datetime2</text>
</g>
<!-- Enrolment&#45;&gt;Race_Result -->
<g id="edge7" class="edge">
<title>Enrolment&#45;&gt;Race_Result</title>
<path fill="none" stroke="black" d="M1074.44,-126C1118.52,-126 1169.52,-126 1212.9,-126"/>
<text text-anchor="middle" x="1133" y="-101.1" font-family="Arial" font-size="8.00">produces</text>
<text text-anchor="middle" x="1199.3" y="-130.44" font-family="Arial" font-size="8.00">0..1</text>
<text text-anchor="middle" x="1088.03" y="-117.76" font-family="Arial" font-size="8.00">1</text>
</g>
</g>
</svg>
